<?xml version="1.0" encoding="UTF-8" standalone="no"?>
<!DOCTYPE svg PUBLIC "-//W3C//DTD SVG 1.1//EN" "http://www.w3.org/Graphics/SVG/1.1/DTD/svg11.dtd">
<svg width="100%" height="100%" viewBox="0 0 1453 1379" version="1.1" xmlns="http://www.w3.org/2000/svg" xmlns:xlink="http://www.w3.org/1999/xlink" xml:space="preserve" xmlns:serif="http://www.serif.com/" style="fill-rule:evenodd;clip-rule:evenodd;stroke-linejoin:round;stroke-miterlimit:2;">
    <g transform="matrix(5.619076,0,0,5.619076,-498.943864,0)">
        <g transform="matrix(0.534484,0,0,0.534484,99.192312,42.520881)">
            <path d="M239.038,72.43C205.957,72.43 177.232,91.03 162.716,118.334C148.2,91.029 119.476,72.432 86.396,72.432C66.953,72.432 49.011,78.856 34.575,89.698L34.575,16.925L34.567,16.925C34.365,7.547 26.713,0 17.286,0C7.858,0 0.208,7.547 0.008,16.925L0,16.925L0,160.258L0.036,160.258C0.804,207.309 39.161,245.225 86.395,245.225C119.475,245.225 148.2,226.622 162.715,199.317C177.232,226.624 205.956,245.223 239.036,245.223C286.751,245.223 325.432,206.539 325.432,158.827C325.433,111.109 286.75,72.43 239.038,72.43ZM86.395,210.648C57.774,210.648 34.574,187.447 34.574,158.828C34.574,130.205 57.775,107.005 86.395,107.005C115.016,107.005 138.217,130.205 138.217,158.828C138.217,187.447 115.016,210.648 86.395,210.648ZM239.038,210.648C210.416,210.648 187.217,187.447 187.217,158.826C187.217,130.203 210.417,107.005 239.038,107.005C267.657,107.005 290.86,130.203 290.86,158.826C290.859,187.447 267.657,210.648 239.038,210.648Z" style="fill:rgb(0,117,201);fill-rule:nonzero;"/>
        </g>
        <g transform="matrix(0.534484,0,0,0.534484,99.192312,42.520881)">
            <path d="M441.651,218.033L397.405,158.89L441.651,99.746L441.643,99.739C447.116,92.119 445.53,81.49 437.991,75.826C430.454,70.168 419.804,71.605 414.011,78.983L414.007,78.981L375.819,130.028L337.631,78.981L337.625,78.99C331.832,71.605 321.184,70.168 313.644,75.83C306.105,81.494 304.519,92.123 309.995,99.741L309.987,99.746L354.232,158.89L309.987,218.033L309.995,218.038C304.518,225.658 306.105,236.285 313.644,241.947C321.184,247.611 331.832,246.172 337.625,238.792L337.631,238.799L375.819,187.75L414.007,238.799L414.011,238.797C419.805,246.174 430.454,247.611 437.991,241.951C445.53,236.289 447.116,225.66 441.643,218.041L441.651,218.033Z" style="fill:rgb(0,117,201);fill-rule:nonzero;"/>
        </g>
    </g>
</svg>
